<svg width="26" height="16" viewBox="0 0 26 16" fill="none" xmlns="http://www.w3.org/2000/svg">
<path fill-rule="evenodd" clip-rule="evenodd" d="M0.305542 8C0.305542 7.76429 0.402217 7.53822 0.574301 7.37155C0.746384 7.20487 0.979779 7.11124 1.22314 7.11124L22.8657 7.11124L17.0903 1.51913C16.918 1.35225 16.8212 1.1259 16.8212 0.889886C16.8212 0.653873 16.918 0.427527 17.0903 0.260641C17.2626 0.0937548 17.4963 0 17.7399 0C17.9836 0 18.2173 0.0937548 18.3896 0.260641L25.7304 7.37076C25.8159 7.45331 25.8837 7.55139 25.9299 7.65937C25.9762 7.76734 26 7.8831 26 8C26 8.1169 25.9762 8.23266 25.9299 8.34063C25.8837 8.44861 25.8159 8.54669 25.7304 8.62925L18.3896 15.7394C18.2173 15.9062 17.9836 16 17.7399 16C17.4963 16 17.2626 15.9062 17.0903 15.7394C16.918 15.5725 16.8212 15.3461 16.8212 15.1101C16.8212 14.8741 16.918 14.6478 17.0903 14.4809L22.8657 8.88876L1.22314 8.88876C0.979779 8.88876 0.746384 8.79513 0.574301 8.62845C0.402217 8.46177 0.305542 8.23571 0.305542 8Z" fill="white"/>
</svg>
